<svg xmlns="http://www.w3.org/2000/svg" x="0px" y="0px" viewBox="0 0 280 63" style="vertical-align: middle; max-width: 100%;" width="100%"><path d="M269.1,63H47.12c-6.01,0-10.9-4.89-10.9-10.9v-1.2c0-6.01,4.89-10.9,10.9-10.9h18.1  c2.57-1.67,4.28-4.56,4.28-7.85v-1.3c0-3.29-1.71-6.18-4.28-7.85H9.73C4.36,23,0,18.64,0,13.28V9.72C0,4.36,4.36,0,9.73,0h167.55  c5.36,0,9.73,4.36,9.73,9.72v3.55c0,5.36-4.36,9.72-9.72,9.72h-9.49c-2.57,1.67-4.28,4.56-4.28,7.85v1.3c0,3.29,1.71,6.18,4.28,7.85  H269.1c6.01,0,10.9,4.89,10.9,10.9v1.2C280,58.11,275.11,63,269.1,63z M269.5,52.15v-1.3c0-3.29-1.71-6.18-4.28-7.85h-101.5  c-3.16,0-6.21-1.32-8.37-3.62c-2.2-2.33-3.3-5.38-3.11-8.59c0.36-6.05,5.58-10.79,11.87-10.79h8.11c2.57-1.67,4.28-4.56,4.28-7.85  v-1.3c0-3.29-1.71-6.18-4.28-7.85H14.78c-2.57,1.67-4.28,4.56-4.28,7.85v1.3c0,3.29,1.71,6.18,4.28,7.85h54.5  c3.16,0,6.21,1.32,8.37,3.62c2.2,2.33,3.3,5.38,3.11,8.59C80.39,38.26,75.18,43,68.89,43H50.78c-2.57,1.67-4.28,4.56-4.28,7.85v1.3  c0,3.29,1.71,6.18,4.28,7.85h214.44C267.79,58.33,269.5,55.44,269.5,52.15z M39.22,50.9v1.2c0,4.36,3.54,7.9,7.9,7.9h0.66  c-2.57-1.67-4.28-4.56-4.28-7.85v-1.3c0-3.29,1.71-6.18,4.28-7.85h-0.66C42.77,43,39.22,46.54,39.22,50.9z M72.5,30.85v1.3  c0,3.29-1.71,6.18-4.28,7.85h0.67c4.71,0,8.61-3.5,8.87-7.97c0.14-2.38-0.67-4.63-2.29-6.35C73.84,23.95,71.65,23,69.28,23h-1.06  C70.79,24.67,72.5,27.56,72.5,30.85z M3,9.72v3.55C3,16.98,6.02,20,9.73,20h2.06c-2.57-1.67-4.28-4.56-4.28-7.85v-1.3  c0-3.29,1.71-6.18,4.28-7.85H9.73C6.02,3,3,6.02,3,9.72z M184,13.28V9.72c0-3.71-3.02-6.72-6.73-6.72h-2.06  c2.57,1.67,4.28,4.56,4.28,7.85v1.3c0,3.29-1.71,6.18-4.28,7.85h2.06C180.98,20,184,16.98,184,13.28z M160.5,32.15v-1.3  c0-3.29,1.71-6.18,4.28-7.85h-0.67c-4.71,0-8.61,3.5-8.87,7.97c-0.14,2.38,0.67,4.63,2.29,6.35c1.62,1.72,3.82,2.67,6.19,2.67h1.06  C162.21,38.33,160.5,35.44,160.5,32.15z M277,50.9c0-4.36-3.54-7.9-7.9-7.9h-0.88c2.57,1.67,4.28,4.56,4.28,7.85v1.3  c0,3.29-1.71,6.18-4.28,7.85h0.88c4.36,0,7.9-3.54,7.9-7.9V50.9z" fill="rgb(145,145,145)"></path></svg>