<svg xmlns="http://www.w3.org/2000/svg" x="0px" y="0px" viewBox="0 0 280 63" style="vertical-align: middle; max-width: 100%; width: 100%;" width="100%"><path d="M269.1,0H47.12c-6.01,0-10.9,4.89-10.9,10.9v1.2c0,6.01,4.89,10.9,10.9,10.9h18.1  c2.57,1.67,4.28,4.56,4.28,7.85v1.3c0,3.29-1.71,6.18-4.28,7.85H9.73C4.36,40,0,44.36,0,49.72v3.55C0,58.64,4.36,63,9.73,63h167.55  c5.36,0,9.73-4.36,9.73-9.72v-3.55c0-5.36-4.36-9.72-9.72-9.72h-9.49c-2.57-1.67-4.28-4.56-4.28-7.85v-1.3  c0-3.29,1.71-6.18,4.28-7.85H269.1c6.01,0,10.9-4.89,10.9-10.9v-1.2C280,4.89,275.11,0,269.1,0z M269.5,10.85v1.3  c0,3.29-1.71,6.18-4.28,7.85h-101.5c-3.16,0-6.21,1.32-8.37,3.62c-2.2,2.33-3.3,5.38-3.11,8.59c0.36,6.05,5.58,10.79,11.87,10.79  h8.11c2.57,1.67,4.28,4.56,4.28,7.85v1.3c0,3.29-1.71,6.18-4.28,7.85H14.78c-2.57-1.67-4.28-4.56-4.28-7.85v-1.3  c0-3.29,1.71-6.18,4.28-7.85h54.5c3.16,0,6.21-1.32,8.37-3.62c2.2-2.33,3.3-5.38,3.11-8.59C80.39,24.74,75.18,20,68.89,20H50.78  c-2.57-1.67-4.28-4.56-4.28-7.85v-1.3c0-3.29,1.71-6.18,4.28-7.85h214.44C267.79,4.67,269.5,7.56,269.5,10.85z M39.22,12.1v-1.2  c0-4.36,3.54-7.9,7.9-7.9h0.66c-2.57,1.67-4.28,4.56-4.28,7.85v1.3c0,3.29,1.71,6.18,4.28,7.85h-0.66  C42.77,20,39.22,16.46,39.22,12.1z M72.5,32.15v-1.3c0-3.29-1.71-6.18-4.28-7.85h0.67c4.71,0,8.61,3.5,8.87,7.97  c0.14,2.38-0.67,4.63-2.29,6.35C73.84,39.05,71.65,40,69.28,40h-1.06C70.79,38.33,72.5,35.44,72.5,32.15z M3,53.28v-3.55  C3,46.02,6.02,43,9.73,43h2.06c-2.57,1.67-4.28,4.56-4.28,7.85v1.3c0,3.29,1.71,6.18,4.28,7.85H9.73C6.02,60,3,56.98,3,53.28z   M184,49.72v3.55c0,3.71-3.02,6.72-6.73,6.72h-2.06c2.57-1.67,4.28-4.56,4.28-7.85v-1.3c0-3.29-1.71-6.18-4.28-7.85h2.06  C180.98,43,184,46.02,184,49.72z M160.5,30.85v1.3c0,3.29,1.71,6.18,4.28,7.85h-0.67c-4.71,0-8.61-3.5-8.87-7.97  c-0.14-2.38,0.67-4.63,2.29-6.35c1.62-1.72,3.82-2.67,6.19-2.67h1.06C162.21,24.67,160.5,27.56,160.5,30.85z M277,12.1  c0,4.36-3.54,7.9-7.9,7.9h-0.88c2.57-1.67,4.28-4.56,4.28-7.85v-1.3c0-3.29-1.71-6.18-4.28-7.85h0.88c4.36,0,7.9,3.54,7.9,7.9V12.1z" fill="rgb(145,145,145)"></path></svg>